<svg width="127" height="52" viewBox="0 0 127 52" fill="none" xmlns="http://www.w3.org/2000/svg">
<path d="M7.52652 17.2338C5.28524 22.1136 5.06814 27.5959 6.91526 32.6708C8.76239 37.7458 12.4526 41.8059 17.3062 44.1032C20.9081 45.8082 24.8307 46.3897 28.6648 45.8305C23.2746 44.9645 18.475 41.2472 16.4619 35.7162C13.547 27.7075 17.5509 18.8568 25.3946 15.8623C25.4694 15.8329 25.5446 15.8044 25.6205 15.7768C30.4751 14.0099 35.8788 16.5676 37.6662 21.4784C39.4535 26.3892 36.9581 31.822 32.1035 33.5889C31.507 33.806 30.9022 33.9575 30.2968 34.0477C32.5268 34.6302 34.9414 34.5676 37.2572 33.7247C43.294 31.5275 46.4396 24.8386 44.3722 18.7141C42.492 13.7723 38.8509 9.82029 34.0886 7.56615C29.235 5.26874 23.799 5.00907 18.7821 6.83509C13.7651 8.66111 9.76796 12.3542 7.52652 17.2338Z" fill="white"/>
<path d="M59.7234 34.0475C61.9647 29.1676 62.1818 23.6854 60.3347 18.6104C58.4876 13.5355 54.7973 9.47538 49.9438 7.17804C46.3418 5.47306 42.4192 4.89158 38.5851 5.45079C43.9754 6.31672 48.7749 10.034 50.788 15.565C53.703 23.5737 49.699 32.4245 41.8553 35.419C41.7806 35.4483 41.7053 35.4768 41.6295 35.5044C36.7749 37.2714 31.3712 34.7136 29.5838 29.8028C27.7964 24.8921 30.2919 19.4593 35.1465 17.6923C35.743 17.4752 36.3477 17.3238 36.9531 17.2335C34.7232 16.6511 32.3086 16.7136 29.9927 17.5565C23.956 19.7537 20.8104 26.4427 22.8778 32.5671C24.758 37.5089 28.399 41.461 33.1614 43.7151C38.015 46.0125 43.4509 46.2722 48.4679 44.4462C53.4848 42.6201 57.482 38.9271 59.7234 34.0475Z" fill="white"/>
<path d="M88.97 33.6406V18.7406H92.83L95.19 25.1806C95.3367 25.6073 95.4767 26.054 95.61 26.5206C95.7433 26.974 95.8767 27.4273 96.01 27.8806H96.11C96.2567 27.4273 96.3967 26.974 96.53 26.5206C96.6633 26.054 96.7967 25.6073 96.93 25.1806L99.21 18.7406H103.09V33.6406H99.83V28.5406C99.83 28.0473 99.8567 27.494 99.91 26.8806C99.9633 26.2673 100.023 25.654 100.09 25.0406C100.17 24.414 100.243 23.8606 100.31 23.3806H100.21L98.97 26.9406L96.97 32.3806H95.01L92.99 26.9406L91.79 23.3806H91.71C91.7767 23.8606 91.8433 24.414 91.91 25.0406C91.9767 25.654 92.0367 26.2673 92.09 26.8806C92.1433 27.494 92.17 28.0473 92.17 28.5406V33.6406H88.97ZM106.509 33.6406V18.7406H110.089V24.4206H114.989V18.7406H118.549V33.6406H114.989V27.5206H110.089V33.6406H106.509Z" fill="white"/>
</svg>
