<svg width="21" height="21" viewBox="0 0 21 21" fill="none" xmlns="http://www.w3.org/2000/svg">
<path d="M16.5306 11.0306L12.0306 15.5306C11.8897 15.6715 11.6986 15.7507 11.4994 15.7507C11.3001 15.7507 11.109 15.6715 10.9681 15.5306C10.8272 15.3897 10.7481 15.1986 10.7481 14.9994C10.7481 14.8001 10.8272 14.609 10.9681 14.4681L14.1875 11.25H5C4.80109 11.25 4.61032 11.171 4.46967 11.0303C4.32902 10.8897 4.25 10.6989 4.25 10.5C4.25 10.3011 4.32902 10.1103 4.46967 9.96966C4.61032 9.829 4.80109 9.74999 5 9.74999H14.1875L10.9694 6.52999C10.8285 6.38909 10.7493 6.19799 10.7493 5.99874C10.7493 5.79948 10.8285 5.60838 10.9694 5.46749C11.1103 5.32659 11.3014 5.24744 11.5006 5.24744C11.6999 5.24744 11.891 5.32659 12.0319 5.46749L16.5319 9.96749C16.6018 10.0373 16.6573 10.1202 16.6951 10.2114C16.7329 10.3027 16.7523 10.4005 16.7522 10.4993C16.752 10.5981 16.7324 10.6959 16.6944 10.7871C16.6564 10.8782 16.6007 10.961 16.5306 11.0306Z" fill="black"/>
</svg>
