<svg width="67" height="80" viewBox="0 0 67 80" fill="none" xmlns="http://www.w3.org/2000/svg">
<path fill-rule="evenodd" clip-rule="evenodd" d="M33.3333 80C51.7428 80 66.6667 62.0914 66.6667 40C66.6667 17.9086 51.7428 0 33.3333 0C14.9238 0 0 17.9086 0 40C0 62.0914 14.9238 80 33.3333 80Z" fill="#BBC5CC"/>
<path fill-rule="evenodd" clip-rule="evenodd" d="M33.3333 21.3335C37.0222 21.3335 40 24.9068 40 29.3335C40 33.7602 37.0222 37.3335 33.3333 37.3335C29.6444 37.3335 26.6667 33.7602 26.6667 29.3335C26.6667 24.9068 29.6444 21.3335 33.3333 21.3335ZM33.3333 59.2002C27.7778 59.2002 22.8667 55.7868 20 50.6135C20.0667 45.3068 28.8889 42.4002 33.3333 42.4002C37.7556 42.4002 46.6 45.3068 46.6667 50.6135C43.8 55.7868 38.8889 59.2002 33.3333 59.2002Z" fill="#A4ADB2"/>
</svg>
