<svg width="56" height="56" viewBox="0 0 56 56" fill="none" xmlns="http://www.w3.org/2000/svg">
<path d="M44.3334 9.33341H39.6667V7.00008C39.6667 6.38124 39.4209 5.78775 38.9833 5.35017C38.5457 4.91258 37.9522 4.66675 37.3334 4.66675C36.7145 4.66675 36.121 4.91258 35.6834 5.35017C35.2459 5.78775 35 6.38124 35 7.00008V9.33341H21V7.00008C21 6.38124 20.7542 5.78775 20.3166 5.35017C19.879 4.91258 19.2855 4.66675 18.6667 4.66675C18.0478 4.66675 17.4544 4.91258 17.0168 5.35017C16.5792 5.78775 16.3334 6.38124 16.3334 7.00008V9.33341H11.6667C9.81017 9.33341 8.02969 10.0709 6.71694 11.3837C5.40419 12.6964 4.66669 14.4769 4.66669 16.3334V44.3334C4.66669 46.1899 5.40419 47.9704 6.71694 49.2832C8.02969 50.5959 9.81017 51.3334 11.6667 51.3334H44.3334C46.1899 51.3334 47.9703 50.5959 49.2831 49.2832C50.5959 47.9704 51.3334 46.1899 51.3334 44.3334V16.3334C51.3334 14.4769 50.5959 12.6964 49.2831 11.3837C47.9703 10.0709 46.1899 9.33341 44.3334 9.33341ZM46.6667 44.3334C46.6667 44.9523 46.4209 45.5457 45.9833 45.9833C45.5457 46.4209 44.9522 46.6667 44.3334 46.6667H11.6667C11.0478 46.6667 10.4544 46.4209 10.0168 45.9833C9.57919 45.5457 9.33335 44.9523 9.33335 44.3334V28.0001H46.6667V44.3334ZM46.6667 23.3334H9.33335V16.3334C9.33335 15.7146 9.57919 15.1211 10.0168 14.6835C10.4544 14.2459 11.0478 14.0001 11.6667 14.0001H16.3334V16.3334C16.3334 16.9523 16.5792 17.5457 17.0168 17.9833C17.4544 18.4209 18.0478 18.6667 18.6667 18.6667C19.2855 18.6667 19.879 18.4209 20.3166 17.9833C20.7542 17.5457 21 16.9523 21 16.3334V14.0001H35V16.3334C35 16.9523 35.2459 17.5457 35.6834 17.9833C36.121 18.4209 36.7145 18.6667 37.3334 18.6667C37.9522 18.6667 38.5457 18.4209 38.9833 17.9833C39.4209 17.5457 39.6667 16.9523 39.6667 16.3334V14.0001H44.3334C44.9522 14.0001 45.5457 14.2459 45.9833 14.6835C46.4209 15.1211 46.6667 15.7146 46.6667 16.3334V23.3334Z" fill="white"/>
</svg>
