<svg width="56" height="56" viewBox="0 0 56 56" fill="none" xmlns="http://www.w3.org/2000/svg">
<path fill-rule="evenodd" clip-rule="evenodd" d="M33.8334 21C40.921 21 46.6667 26.7457 46.6667 33.8333C46.6667 36.5342 45.8324 39.0401 44.4074 41.1075L50.9573 47.6574L47.6574 50.9573L41.1076 44.4075C39.0401 45.8324 36.5342 46.6667 33.8334 46.6667C26.7457 46.6667 21 40.921 21 33.8333C21 26.7457 26.7457 21 33.8334 21ZM33.8334 25.6667C29.323 25.6667 25.6667 29.3231 25.6667 33.8333C25.6667 38.3437 29.3231 42 33.8334 42C38.3437 42 42 38.3436 42 33.8333C42 29.323 38.3436 25.6667 33.8334 25.6667ZM18.7108 32.6666C18.6814 33.0517 18.6667 33.4406 18.6666 33.8333C18.6666 35.0381 18.807 36.2099 19.0724 37.3335L4.66659 37.3333V32.6667L18.7108 32.6666ZM14.0001 7V30.3333H7V7H14.0001ZM23.3334 16.3333L23.3331 22.8892C21.2626 24.8764 19.7548 27.4452 19.0726 30.3332L16.3334 30.3333V16.3333H23.3334ZM32.6667 11.6667V18.7109C30.1755 18.8989 27.7701 19.7031 25.6667 21.051V11.6666L32.6667 11.6667ZM42 14L42.0001 21.051C39.8967 19.7031 37.4913 18.8989 35.0001 18.7109V14H42Z" fill="white"/>
</svg>
