<svg width="56" height="56" viewBox="0 0 56 56" fill="none" xmlns="http://www.w3.org/2000/svg">
<path d="M35 18.6667H35.0233M23.3333 49H14C12.1435 49 10.363 48.2625 9.05025 46.9497C7.7375 45.637 7 43.8565 7 42V14C7 12.1435 7.7375 10.363 9.05025 9.05025C10.363 7.7375 12.1435 7 14 7H42C43.8565 7 45.637 7.7375 46.9497 9.05025C48.2625 10.363 49 12.1435 49 14V25.6667" stroke="white" stroke-width="4.66667" stroke-linecap="round" stroke-linejoin="round"/>
<path d="M7 37.3334L18.6667 25.6668C20.832 23.5831 23.5013 23.5831 25.6667 25.6668L28 28.0001M32.6667 49.0001V39.6668C32.6667 38.4291 33.1583 37.2421 34.0335 36.3669C34.9087 35.4918 36.0957 35.0001 37.3333 35.0001C38.571 35.0001 39.758 35.4918 40.6332 36.3669C41.5083 37.2421 42 38.4291 42 39.6668V49.0001M32.6667 44.3334H42M49 35.0001V49.0001" stroke="white" stroke-width="4.66667" stroke-linecap="round" stroke-linejoin="round"/>
</svg>
