<svg width="56" height="56" viewBox="0 0 56 56" fill="none" xmlns="http://www.w3.org/2000/svg">
<path d="M31.9829 5.3504C31.5453 4.91297 30.9519 4.66724 30.3332 4.66724C29.7145 4.66724 29.1211 4.91297 28.6836 5.3504L15.0569 18.977C15.0219 18.9747 14.9893 18.956 14.9543 18.956C14.3355 18.9562 13.7421 19.2021 13.3046 19.6397L10.0053 22.939C9.35537 23.5894 8.83993 24.3613 8.48842 25.2109C8.13691 26.0605 7.9562 26.9709 7.95662 27.8903C7.95662 29.7617 8.68695 31.521 10.0076 32.8393L11.6573 34.489L6.70595 39.4403C6.05295 40.0816 5.53582 40.8478 5.18544 41.6933C4.83506 42.5387 4.65861 43.4461 4.66662 44.3613C4.65593 45.3865 4.87286 46.4014 5.30177 47.3326C5.73069 48.2639 6.36089 49.0884 7.14695 49.7466C8.35795 50.771 9.91894 51.3333 11.5453 51.3333C13.4913 51.3333 15.4046 50.5376 16.7953 49.147L21.5552 44.3893L23.2049 46.0366C25.8509 48.6803 30.4592 48.6826 33.1029 46.039L36.4045 42.7396C36.8422 42.3022 37.0881 41.7088 37.0882 41.09C37.0882 41.0293 37.0579 40.9733 37.0532 40.9126L50.6495 27.3163C51.0869 26.8788 51.3327 26.2854 51.3327 25.6667C51.3327 25.048 51.0869 24.4546 50.6495 24.017L31.9829 5.3504ZM29.8012 42.7396C29.3567 43.1641 28.7657 43.4007 28.1511 43.4003C27.5365 43.3998 26.9458 43.1624 26.5019 42.7373L23.2026 39.4403C22.765 39.0029 22.1716 38.7572 21.5529 38.7572C20.9342 38.7572 20.3408 39.0029 19.9033 39.4403L13.4959 45.8453C12.9782 46.3638 12.2779 46.6586 11.5453 46.6666C11.0399 46.6769 10.5478 46.5046 10.1593 46.1813C9.89217 45.9598 9.67898 45.6804 9.53587 45.3642C9.39276 45.0481 9.32348 44.7035 9.33328 44.3566C9.33097 44.0564 9.38907 43.7587 9.50411 43.4813C9.61915 43.2039 9.78879 42.9525 10.0029 42.742L16.6039 36.141C17.0414 35.7034 17.2871 35.11 17.2871 34.4913C17.2871 33.8726 17.0414 33.2792 16.6039 32.8417L13.3023 29.54C12.8661 29.1027 12.6211 28.5103 12.6209 27.8927C12.6209 27.2673 12.8636 26.6817 13.3046 26.2407L14.9543 24.591L31.4532 41.0923L29.8012 42.7396ZM34.2089 37.1583L18.8416 21.791L30.3332 10.2994L45.7005 25.6667L34.2089 37.1583Z" fill="white"/>
</svg>
