<svg width="56" height="56" viewBox="0 0 56 56" fill="none" xmlns="http://www.w3.org/2000/svg">
<path d="M26.3503 5.3504C26.7879 4.91297 27.3813 4.66724 28 4.66724C28.6187 4.66724 29.2121 4.91297 29.6497 5.3504L36.6497 12.3504C37.0747 12.7905 37.3099 13.3799 37.3046 13.9917C37.2993 14.6035 37.0539 15.1887 36.6213 15.6213C36.1886 16.0539 35.6034 16.2993 34.9916 16.3046C34.3798 16.31 33.7904 16.0748 33.3503 15.6497L30.3333 12.6327V35.0001C30.3333 35.6189 30.0875 36.2124 29.6499 36.65C29.2123 37.0876 28.6188 37.3334 28 37.3334C27.3812 37.3334 26.7877 37.0876 26.3501 36.65C25.9125 36.2124 25.6667 35.6189 25.6667 35.0001V12.6327L22.6497 15.6497C22.2096 16.0748 21.6202 16.31 21.0084 16.3046C20.3966 16.2993 19.8114 16.0539 19.3788 15.6213C18.9461 15.1887 18.7008 14.6035 18.6954 13.9917C18.6901 13.3799 18.9253 12.7905 19.3503 12.3504L26.3503 5.3504ZM9.33334 25.6667C9.33334 24.4291 9.82501 23.2421 10.7002 22.3669C11.5753 21.4917 12.7623 21.0001 14 21.0001H18.6667C19.2855 21.0001 19.879 21.2459 20.3166 21.6835C20.7542 22.1211 21 22.7146 21 23.3334C21 23.9522 20.7542 24.5457 20.3166 24.9833C19.879 25.4209 19.2855 25.6667 18.6667 25.6667H14V46.6667H42V25.6667H37.3333C36.7145 25.6667 36.121 25.4209 35.6834 24.9833C35.2458 24.5457 35 23.9522 35 23.3334C35 22.7146 35.2458 22.1211 35.6834 21.6835C36.121 21.2459 36.7145 21.0001 37.3333 21.0001H42C43.2377 21.0001 44.4247 21.4917 45.2998 22.3669C46.175 23.2421 46.6667 24.4291 46.6667 25.6667V46.6667C46.6667 47.9044 46.175 49.0914 45.2998 49.9666C44.4247 50.8417 43.2377 51.3334 42 51.3334H14C12.7623 51.3334 11.5753 50.8417 10.7002 49.9666C9.82501 49.0914 9.33334 47.9044 9.33334 46.6667V25.6667Z" fill="white"/>
</svg>
