<svg width="169" height="48" viewBox="0 0 169 48" fill="none" xmlns="http://www.w3.org/2000/svg">
<g clip-path="url(#clip0_21_547)">
<path d="M9.25407 0.296492C5.81944 1.73518 2.04421 5.79446 0.851767 10.8936C-0.658589 17.3523 5.62547 20.0843 6.1413 19.1898C6.74788 18.1374 5.01527 17.7816 4.65856 14.4302C4.19763 10.1016 6.21001 5.26515 8.74284 3.14296C9.21297 2.74844 9.19095 3.29748 9.19095 4.31238C9.19095 6.12751 9.09067 22.4225 9.09067 25.8233C9.09067 30.4247 8.90064 31.8779 8.55906 33.3139C8.21352 34.7687 7.65725 35.7521 8.0784 36.1308C8.54919 36.5543 10.5593 35.5466 11.7228 33.9228C13.1181 31.9752 13.6066 29.6357 13.6944 27.0959C13.8003 24.0338 13.7957 19.1746 13.8003 16.4031C13.8042 13.8614 13.843 6.41846 13.7556 1.94394C13.7342 0.845861 10.6905 -0.305481 9.25407 0.296492ZM131.208 21.8317C131.097 24.2242 130.568 26.0939 129.91 27.4129C128.638 29.9664 125.998 30.7591 124.877 27.0887C124.266 25.0878 124.237 21.7462 124.676 18.954C125.123 16.1099 126.372 13.9617 128.439 14.1553C130.478 14.347 131.432 16.9739 131.208 21.8317ZM96.8353 36.6746C96.8077 40.6494 96.1821 44.1343 94.8407 45.1469C92.9378 46.5823 90.3803 45.5053 90.91 42.6049C91.3785 40.0382 93.5947 37.4169 96.8409 34.2141C96.8409 34.2141 96.8475 34.9446 96.8353 36.6746ZM96.3159 21.8087C96.1995 23.9878 95.6347 26.1764 95.0182 27.4132C93.7459 29.9667 91.0868 30.765 89.9848 27.089C89.2313 24.5773 89.4118 21.3271 89.7843 19.2789C90.2682 16.6214 91.4413 14.156 93.547 14.156C95.5946 14.156 96.6045 16.4025 96.3159 21.8087ZM76.4041 21.7758C76.2792 24.0831 75.8291 26.012 75.1068 27.4132C73.7996 29.9493 71.2135 30.7535 70.0734 27.089C69.2511 24.4467 69.5309 20.8441 69.8728 18.8978C70.3804 16.0096 71.6514 13.962 73.6356 14.156C75.6736 14.3552 76.6642 16.9745 76.4041 21.7758ZM167.654 24.4711C167.156 24.4711 166.929 24.9846 166.74 25.8486C166.088 28.8549 165.402 29.5331 164.518 29.5331C163.53 29.5331 162.643 28.0451 162.414 25.0658C162.235 22.723 162.264 18.4102 162.493 14.1202C162.54 13.2387 162.297 12.3665 159.933 11.5078C158.915 11.1382 157.437 10.5941 156.7 12.3715C154.62 17.393 153.806 21.3797 153.614 22.9985C153.605 23.0824 153.502 23.0998 153.484 22.9038C153.362 21.6069 153.089 19.2496 153.055 14.2977C153.048 13.3315 152.844 12.5092 151.777 11.8359C151.085 11.3986 148.984 10.626 148.228 11.5456C147.572 12.2972 146.813 14.3204 146.024 16.7191C145.383 18.6687 144.936 19.987 144.936 19.987C144.936 19.987 144.945 14.7274 144.952 12.7321C144.956 11.9796 144.44 11.7287 144.284 11.6833C143.583 11.4802 142.203 11.1405 141.617 11.1405C140.893 11.1405 140.717 11.5443 140.717 12.1334C140.717 12.2107 140.602 19.0582 140.602 23.8464C140.602 24.0545 140.602 24.2814 140.603 24.5227C140.204 26.7235 138.907 29.7106 137.496 29.7106C136.084 29.7106 135.418 28.462 135.418 22.7536C135.418 19.4235 135.518 17.9753 135.567 15.5667C135.595 14.1793 135.651 13.1141 135.647 12.8725C135.637 12.1311 134.355 11.7573 133.759 11.6192C133.159 11.4802 132.638 11.4259 132.232 11.4493C131.656 11.4821 131.249 11.8592 131.249 12.3787C131.249 12.6575 131.252 13.1868 131.252 13.1868C130.511 12.0216 129.318 11.2109 128.525 10.9758C126.388 10.3413 124.158 10.9035 122.476 13.2572C121.139 15.1269 120.334 17.2451 120.016 20.2878C119.785 22.5126 119.86 24.7683 120.272 26.6761C119.774 28.8289 118.85 29.7106 117.838 29.7106C116.368 29.7106 115.303 27.3126 115.427 23.1642C115.508 20.4358 116.054 18.521 116.651 15.7508C116.906 14.5699 116.699 13.9518 116.18 13.3594C115.705 12.8159 114.691 12.5381 113.235 12.8794C112.197 13.123 110.713 13.385 109.356 13.5862C109.356 13.5862 109.438 13.2591 109.505 12.6831C109.858 9.66175 106.575 9.90668 105.527 10.8716C104.902 11.4479 104.476 12.1275 104.315 13.3492C104.058 15.2883 105.64 16.2029 105.64 16.2029C105.121 18.5779 103.849 21.6802 102.536 23.9233C101.833 25.125 101.295 26.0156 100.6 26.9621C100.578 23.1636 100.602 19.365 100.675 15.5671C100.703 14.1797 100.759 13.1427 100.756 12.9008C100.748 12.359 100.431 12.1538 99.7729 11.8947C99.1903 11.6653 98.5019 11.5068 97.7874 11.4509C96.886 11.3812 96.3428 11.8589 96.3573 12.4244C96.3599 12.5312 96.3599 13.1868 96.3599 13.1868C95.6186 12.0216 94.4261 11.2109 93.6328 10.9758C91.4958 10.3413 89.2661 10.9035 87.5842 13.2572C86.2477 15.1269 85.3725 17.7511 85.1243 20.2648C84.8935 22.6073 84.9359 24.598 85.2509 26.2753C84.9113 27.9547 83.9342 29.711 82.8299 29.711C81.4175 29.711 80.614 28.462 80.614 22.7536C80.614 19.4235 80.7139 17.9753 80.7632 15.5667C80.7918 14.1797 80.8467 13.1141 80.8438 12.8725C80.8333 12.1311 79.5514 11.7576 78.9547 11.6192C78.3307 11.4746 77.7918 11.422 77.3779 11.4525C76.8322 11.493 76.4482 11.9819 76.4482 12.3465V13.1868C75.7068 12.0216 74.5144 11.2109 73.721 10.9758C71.5841 10.3413 69.3668 10.9127 67.6724 13.2572C66.5677 14.7856 65.6731 16.4801 65.2129 20.2313C65.0797 21.3152 65.0209 22.3308 65.0288 23.2793C64.5882 25.9739 62.6419 29.0794 61.0504 29.0794C60.119 29.0794 59.2316 27.2725 59.2316 23.4223C59.2316 18.2935 59.5492 10.991 59.6031 10.2874C59.6031 10.2874 61.6142 10.2532 62.0034 10.2486C63.0068 10.2374 63.9152 10.2614 65.2517 10.1927C65.9217 10.1588 66.5674 7.75326 65.8757 7.45572C65.562 7.32093 63.3465 7.20323 62.468 7.18449C61.7296 7.16805 59.6735 7.01551 59.6735 7.01551C59.6735 7.01551 59.8579 2.16849 59.901 1.6566C59.9371 1.22953 59.3848 1.00992 59.0685 0.876765C58.2986 0.551286 57.6098 0.395122 56.7935 0.226793C55.6651 -0.00597428 55.1536 0.221861 55.0536 1.17364C54.9031 2.61857 54.8251 6.85079 54.8251 6.85079C53.9973 6.85079 51.1693 6.68904 50.3414 6.68904C49.5721 6.68904 48.7416 9.99775 49.8055 10.0385C51.0292 10.0859 53.1619 10.1273 54.5756 10.1694C54.5756 10.1694 54.5125 17.5923 54.5125 19.8844C54.5127 20.1277 54.5136 20.3631 54.5151 20.5906C53.7369 24.646 50.9963 26.8369 50.9963 26.8369C51.5848 24.1538 50.3825 22.1388 48.2169 20.4332C47.419 19.8049 45.8439 18.6151 44.0817 17.3112C44.0817 17.3112 45.1022 16.3052 46.0076 14.2813C46.6487 12.8472 46.6766 11.207 45.1022 10.845C42.501 10.2466 40.3564 12.1571 39.7166 14.1968C39.2209 15.7768 39.4852 16.9489 40.4564 18.1666C40.5271 18.2557 40.6043 18.3468 40.6832 18.4382C40.0964 19.5698 39.2896 21.0936 38.6064 22.2752C36.7101 25.5563 35.2776 28.151 34.195 28.151C33.3297 28.151 33.3412 25.5162 33.3412 23.0495C33.3412 20.923 33.4983 17.7258 33.6239 14.4161C33.6654 13.3213 33.1176 12.6976 32.2004 12.1328C31.6428 11.7895 30.453 11.1149 29.7639 11.1149C28.7322 11.1149 25.7562 11.2553 22.9446 19.389C22.5902 20.4141 21.8939 22.2821 21.8939 22.2821L21.954 12.501C21.954 12.2715 21.8317 12.0499 21.5519 11.8984C21.0782 11.6409 19.8128 11.1149 18.6874 11.1149C18.1515 11.1151 17.8836 11.3639 17.8836 11.8612L17.7856 27.164C17.7856 28.3269 17.8158 29.6833 17.9309 30.2764C18.0453 30.8702 18.2311 31.3535 18.4605 31.6408C18.6903 31.9278 18.9557 32.1471 19.3932 32.2372C19.8006 32.321 22.0309 32.6074 22.147 31.7552C22.2857 30.7334 22.2913 29.6288 23.4624 25.508C25.2857 19.0921 27.6627 15.9622 28.7805 14.8504C28.9762 14.6564 29.1991 14.6445 29.1882 14.9625C29.1409 16.3689 28.9729 19.8841 28.8601 22.8693C28.5573 30.86 30.0108 32.3411 32.0883 32.3411C33.6775 32.3411 35.9177 30.762 38.3191 26.7649C39.6571 24.5373 40.9889 22.3061 42.3146 20.0712C43.0421 20.7448 43.8591 21.4698 44.6751 22.2443C46.5721 24.0447 47.1948 25.7556 46.7815 27.3784C46.4659 28.6188 45.2754 29.8974 43.1572 28.655C42.5398 28.2923 42.2761 28.0119 41.6554 27.6032C41.322 27.3839 40.8128 27.3182 40.5073 27.5483C39.7143 28.146 39.2606 28.9068 39.0016 29.8484C38.7497 30.7647 39.6673 31.2489 40.6188 31.6727C41.4377 32.0373 43.1983 32.3677 44.3207 32.4052C48.695 32.5515 52.1993 30.2932 54.6387 24.4678C55.0753 29.4989 56.9335 32.3457 60.1624 32.3457C62.321 32.3457 64.4853 29.5555 65.4318 26.8106C65.7034 27.9294 66.1058 28.9025 66.6253 29.7254C69.113 33.6673 73.9393 32.8191 76.3637 29.4716C77.1133 28.4373 77.2273 28.0658 77.2273 28.0658C77.5811 31.2262 80.1264 32.3306 81.5835 32.3306C83.2158 32.3306 84.9008 31.559 86.082 28.8999C86.2201 29.189 86.3717 29.4642 86.5367 29.7254C89.0245 33.6673 93.8511 32.8191 96.2754 29.4716C96.3894 29.3147 96.4895 29.1722 96.5756 29.0442L96.6466 31.1204L94.4146 33.1676C90.6733 36.5967 87.8314 39.1972 87.6223 42.2261C87.356 46.0882 90.4865 47.5236 92.8582 47.7116C95.3723 47.9112 97.5294 46.5212 98.853 44.5758C100.018 42.8633 100.781 39.1778 100.725 35.538C100.703 34.0803 100.665 32.227 100.637 30.2403C101.95 28.7151 103.43 26.7872 104.792 24.5312C106.277 22.0724 107.868 18.7702 108.683 16.2003C108.683 16.2003 110.066 16.2124 111.541 16.1158C112.013 16.0849 112.149 16.1815 112.061 16.5271C111.956 16.9453 110.197 23.7287 111.802 28.2476C112.901 31.3413 115.377 32.3362 116.846 32.3362C118.565 32.3362 120.209 31.0382 121.09 29.111C121.197 29.3256 121.307 29.5334 121.429 29.7258C123.917 33.6677 128.726 32.8139 131.167 29.4716C131.719 28.7174 132.031 28.0658 132.031 28.0658C132.555 31.337 135.099 32.3473 136.556 32.3473C138.074 32.3473 139.514 31.725 140.683 28.9597C140.732 30.1775 140.809 31.173 140.93 31.4866C141.004 31.679 141.435 31.9196 141.749 32.036C143.138 32.5509 144.553 32.3076 145.077 32.2017C145.44 32.1281 145.723 31.8368 145.762 31.0852C145.864 29.111 145.802 25.794 146.4 23.3286C147.404 19.1917 148.342 17.587 148.786 16.7927C149.035 16.3472 149.315 16.2739 149.326 16.745C149.347 17.6985 149.394 20.4973 149.783 24.2584C150.069 27.0239 150.451 28.6589 150.744 29.1767C151.582 30.6562 152.616 30.7262 153.458 30.7262C153.994 30.7262 155.115 30.5782 155.014 29.6367C154.965 29.1777 155.051 26.3411 156.041 22.2654C156.688 19.6037 157.766 17.1991 158.155 16.3196C158.299 15.9955 158.366 16.2509 158.363 16.3009C158.281 18.1338 158.097 24.1292 158.844 27.4083C159.857 31.8502 162.785 32.3473 163.805 32.3473C165.984 32.3473 167.765 30.6904 168.365 26.3302C168.51 25.2808 168.296 24.4711 167.654 24.4711Z" fill="#F2F8FC"/>
</g>
<defs>
<clipPath id="clip0_21_547">
<rect width="168.33" height="48" fill="white" transform="translate(0.334961)"/>
</clipPath>
</defs>
</svg>
