<svg width="121" height="48" viewBox="0 0 121 48" fill="none" xmlns="http://www.w3.org/2000/svg">
<g clip-path="url(#clip0_21_544)">
<path d="M16.4599 7.94111L16.4779 7.85711L16.5259 7.50311L14.3059 7.49111C12.3019 7.47911 11.6869 7.49111 11.6329 7.54211C11.6059 7.56611 10.9129 10.1971 9.67994 14.9611C9.09194 17.2351 8.59694 19.0501 8.57894 18.9961C8.56094 18.9421 7.85894 16.3471 7.01294 13.2301C6.50647 11.3243 5.98245 9.42324 5.44094 7.52711C5.41094 7.49711 2.72294 7.48511 0.544941 7.50311C0.229941 7.50611 0.0529413 6.88811 3.35894 17.4001C3.81494 18.8551 4.50194 20.9161 4.87994 21.9781C5.31794 23.2021 5.62994 24.1501 5.84294 24.9391C6.22094 26.4421 6.23294 27.3841 6.15194 28.4851C6.05594 29.7541 6.04394 38.7241 6.13694 38.8741C6.20894 38.9881 10.4119 39.0421 10.8109 38.9341C10.8739 38.9161 10.9159 38.8561 10.9459 38.5171C11.0449 38.2261 11.0539 37.0651 11.0539 32.2471V26.0941L11.3239 25.2451C11.5009 24.6901 11.9419 23.2291 12.3079 21.9991L13.2889 18.7291C14.8759 13.5571 16.3879 8.47211 16.4299 8.18111L16.4629 7.94411L16.4599 7.94111ZM39.9979 15.4051V15.7261H39.9469L39.9199 24.5851L39.8929 33.1741L39.2059 33.8731C38.4349 34.6561 37.8199 34.9561 37.2619 34.8151C36.6529 34.6621 36.6709 34.8991 36.6199 24.7471L36.5719 15.4021H32.1499V15.7231H32.0989V25.8631C32.0989 36.7261 32.0989 36.7201 32.6509 37.8091C33.0889 38.6791 33.7309 39.1021 34.8259 39.2461C36.2689 39.4381 37.8259 38.7841 39.2689 37.3801L39.8959 36.7711V37.8241C39.8959 38.7331 39.9229 38.8831 40.0879 38.9281C40.3579 39.0031 43.7059 39.0091 44.0659 38.9341L44.3659 38.8711V38.5591L44.4169 38.5501V15.3421L40.0009 15.4021L39.9979 15.4051ZM28.7839 19.9831C28.3639 18.1861 27.5809 16.9771 26.2879 16.1431C24.2599 14.8321 21.9409 14.6911 19.7929 15.7531C18.2269 16.5271 17.2159 17.8111 16.6969 19.6951C16.6305 19.9217 16.5834 20.1536 16.5559 20.3881C16.4239 21.0541 16.4089 22.0441 16.3729 26.6671C16.3189 33.7891 16.4029 34.6351 17.2939 36.2521C18.1699 37.8391 19.9849 39.0031 21.9619 39.2431C22.5559 39.3151 23.7619 39.2041 24.4579 39.0091C26.0329 38.5711 27.5449 37.3261 28.2139 35.9131C28.5085 35.3473 28.7004 34.7339 28.7809 34.1011C28.9759 33.0421 28.9909 31.3261 28.9909 26.9581C28.9909 21.3871 28.9729 20.7781 28.7869 19.9801L28.7839 19.9831ZM23.7409 34.5001C23.2835 34.7945 22.7296 34.8999 22.1959 34.7941C21.7909 34.7071 21.2419 34.0711 21.0739 33.4921C20.8639 32.7691 20.8489 22.7101 21.0289 20.7391C21.3289 19.7521 22.1629 19.2361 23.0749 19.4821C23.7859 19.6741 24.1489 20.1181 24.3559 21.0511C24.5089 21.7441 24.5269 22.6051 24.4939 27.6721C24.4729 31.0321 24.4609 32.6761 24.3499 33.5581C24.2389 34.1131 24.0529 34.2631 23.7409 34.5031V34.5001ZM108.167 25.0381H110.303L110.27 23.1031C110.237 21.3271 110.21 21.1261 109.973 20.6431C109.598 19.8841 109.046 19.5451 108.17 19.5451C107.117 19.5451 106.451 20.0551 106.136 21.0991C106.001 21.5431 105.86 24.6001 105.962 24.8641C106.019 25.0111 106.325 25.0381 108.167 25.0381ZM93.8869 20.6371C93.7598 20.3704 93.5553 20.1482 93.3001 19.9994C93.0448 19.8506 92.7507 19.7822 92.4559 19.8031C91.8971 19.8431 91.3644 20.0559 90.9319 20.4121L90.5509 20.7031V34.6051L90.9319 34.8961C91.7959 35.5561 92.7439 35.6941 93.3979 35.2561C93.6693 35.0652 93.8664 34.7865 93.9559 34.4671C94.1269 33.9751 94.1419 33.3421 94.1209 27.4921C94.0969 21.3961 94.0849 21.0361 93.8869 20.6371Z" fill="white"/>
<path d="M120.377 14.3732C119.951 9.27015 119.612 7.61415 118.562 5.48715C117.167 2.67015 115.154 1.18515 112.286 0.858151C110.069 0.606151 101.723 0.249151 94.004 0.0781514C80.636 -0.218849 58.658 0.354151 55.85 1.07115C54.5967 1.3784 53.4577 2.03847 52.568 2.97315C50.795 4.73715 49.736 7.26915 49.313 10.7732C48.344 18.7712 48.323 28.4312 49.256 36.7202C49.658 40.2842 50.486 42.6002 52.04 44.5082C53.009 45.6992 54.683 46.7102 56.177 47.0132C57.227 47.2262 62.477 47.5202 70.127 47.7932C71.267 47.8352 74.282 47.9042 76.832 47.9492C82.142 48.0422 91.907 47.9882 97.49 47.8322C101.246 47.7272 108.092 47.4482 109.373 47.3492C109.733 47.3222 110.567 47.2682 111.227 47.2322C113.444 47.1062 114.854 46.6442 116.177 45.6032C117.89 44.2562 119.216 41.7692 119.777 38.8502C120.308 36.0902 120.662 31.1732 120.734 25.5902C120.794 20.9252 120.713 18.4112 120.377 14.3672V14.3732ZM67.145 12.5252L64.661 12.5552L64.553 39.0452L62.399 39.0722C60.734 39.0962 60.227 39.0692 60.188 38.9642C60.158 38.8892 60.125 32.9162 60.11 25.6922L60.083 12.5552L55.232 12.4952V8.35515L69.569 8.41215L69.629 12.4922L67.145 12.5252ZM82.376 27.7082V39.0992H78.452V37.8992C78.452 36.9962 78.419 36.6992 78.311 36.6992C78.233 36.6992 77.879 36.9962 77.522 37.3592C76.745 38.1482 75.827 38.7812 75.041 39.0751C73.415 39.6842 71.873 39.3272 71.216 38.1962C70.613 37.1612 70.604 36.9272 70.604 26.1812V16.3111H74.525L74.555 25.6052C74.585 34.7372 74.588 34.9052 74.807 35.2772C75.098 35.7692 75.539 35.9042 76.241 35.7092C76.655 35.5952 76.937 35.3942 77.606 34.7282L78.452 33.8882V16.3111H82.376V27.7022V27.7082ZM97.682 37.4732C97.337 38.2442 96.566 38.9972 95.933 39.1832C94.286 39.6692 92.963 39.2732 91.436 37.8362C90.962 37.3892 90.521 37.0292 90.455 37.0292C90.375 37.0292 90.334 37.3742 90.332 38.0642V39.0992H86.408V8.35515H90.332V13.3712C90.332 16.1282 90.368 18.3872 90.413 18.3872C90.458 18.3872 90.872 18.0212 91.334 17.5772C92.396 16.5542 93.281 16.1042 94.406 16.0202C96.413 15.8672 97.61 16.9022 98.156 19.2602C98.327 19.9952 98.342 20.8352 98.342 27.6542C98.342 35.9582 98.345 35.9942 97.682 37.4732ZM114.287 32.9132C114.263 33.6448 114.186 34.3738 114.056 35.0942C113.51 37.1162 112.058 38.5502 109.958 39.1382C107.132 39.9302 104.018 38.6342 102.776 36.1472C102.08 34.7522 102.053 34.4732 102.053 27.6542C102.053 22.0952 102.074 21.4111 102.251 20.6522C102.755 18.5072 104.003 17.1182 106.118 16.3472C106.73 16.1252 107.369 16.0082 108.008 15.9962C110.291 15.9482 112.553 17.1751 113.504 19.1732C114.143 20.5202 114.224 21.0992 114.287 24.8972L114.344 28.3052L105.977 28.3622L105.947 30.6512C105.902 33.8822 106.121 34.8752 106.994 35.4602C107.726 35.9552 108.854 35.9162 109.466 35.3792C110.042 34.8752 110.204 34.3322 110.261 32.7482L110.312 31.3592H114.353L114.287 32.9132Z" fill="white"/>
</g>
<defs>
<clipPath id="clip0_21_544">
<rect width="120" height="48" fill="white" transform="translate(0.334961)"/>
</clipPath>
</defs>
</svg>
