<svg width="56" height="56" viewBox="0 0 56 56" fill="none" xmlns="http://www.w3.org/2000/svg">
<path d="M11.6667 7H7V11.6667H11.6667V7ZM44.3333 16.3333H49V30.3333H44.3333V21H21V44.3333H30.3333V49H16.3333V16.3333H44.3333ZM16.3333 7H21V11.6667H16.3333V7ZM11.6667 16.3333H7V21H11.6667V16.3333ZM7 25.6667H11.6667V30.3333H7V25.6667ZM11.6667 35H7V39.6667H11.6667V35ZM25.6667 7H30.3333V11.6667H25.6667V7ZM39.6667 7H35V11.6667H39.6667V7ZM35 39.6667V35H49V39.6667H44.3333V44.3333H39.6667V49H35V39.6667ZM44.3333 44.3333V49H49V44.3333H44.3333Z" fill="white"/>
</svg>
