<svg width="127" height="52" viewBox="0 0 127 52" fill="none" xmlns="http://www.w3.org/2000/svg">
<path d="M7.52652 17.2336C5.28524 22.1134 5.06813 27.5957 6.91526 32.6706C8.76239 37.7456 12.4526 41.8057 17.3062 44.103C20.9081 45.808 24.8307 46.3895 28.6648 45.8303C23.2746 44.9643 18.475 41.247 16.4619 35.716C13.547 27.7073 17.5509 18.8566 25.3946 15.8621C25.4694 15.8327 25.5446 15.8042 25.6205 15.7766C30.4751 14.0097 35.8788 16.5674 37.6662 21.4782C39.4535 26.389 36.9581 31.8218 32.1035 33.5887C31.507 33.8058 30.9022 33.9573 30.2968 34.0475C32.5268 34.63 34.9414 34.5674 37.2572 33.7245C43.294 31.5273 46.4396 24.8384 44.3722 18.7139C42.492 13.7721 38.8509 9.82009 34.0886 7.56596C29.235 5.26854 23.799 5.00888 18.7821 6.83489C13.7651 8.66091 9.76796 12.354 7.52652 17.2336Z" fill="black"/>
<path d="M59.7234 34.0477C61.9647 29.1679 62.1818 23.6856 60.3347 18.6107C58.4876 13.5358 54.7973 9.47565 49.9438 7.17831C46.3418 5.47333 42.4192 4.89185 38.5851 5.45106C43.9754 6.31699 48.7749 10.0343 50.788 15.5653C53.703 23.574 49.699 32.4248 41.8553 35.4192C41.7806 35.4486 41.7053 35.4771 41.6295 35.5047C36.7749 37.2716 31.3712 34.7139 29.5838 29.8031C27.7964 24.8923 30.2919 19.4595 35.1465 17.6926C35.743 17.4755 36.3477 17.324 36.9531 17.2338C34.7232 16.6513 32.3086 16.7139 29.9927 17.5568C23.956 19.754 20.8104 26.4429 22.8778 32.5674C24.758 37.5092 28.399 41.4612 33.1614 43.7154C38.015 46.0128 43.4509 46.2724 48.4679 44.4464C53.4848 42.6204 57.482 38.9274 59.7234 34.0477Z" fill="black"/>
<path d="M88.97 33.6406V18.7406H92.83L95.19 25.1806C95.3367 25.6073 95.4767 26.054 95.61 26.5206C95.7433 26.974 95.8767 27.4273 96.01 27.8806H96.11C96.2567 27.4273 96.3967 26.974 96.53 26.5206C96.6633 26.054 96.7967 25.6073 96.93 25.1806L99.21 18.7406H103.09V33.6406H99.83V28.5406C99.83 28.0473 99.8567 27.494 99.91 26.8806C99.9633 26.2673 100.023 25.654 100.09 25.0406C100.17 24.414 100.243 23.8606 100.31 23.3806H100.21L98.97 26.9406L96.97 32.3806H95.01L92.99 26.9406L91.79 23.3806H91.71C91.7767 23.8606 91.8433 24.414 91.91 25.0406C91.9767 25.654 92.0367 26.2673 92.09 26.8806C92.1433 27.494 92.17 28.0473 92.17 28.5406V33.6406H88.97ZM106.509 33.6406V18.7406H110.089V24.4206H114.989V18.7406H118.549V33.6406H114.989V27.5206H110.089V33.6406H106.509Z" fill="black"/>
</svg>
