<svg width="25" height="25" viewBox="0 0 25 25" fill="none" xmlns="http://www.w3.org/2000/svg">
<path d="M12.3097 8.5406L15.8884 12.1193L15.9055 11.9319C15.9055 10.0516 14.3774 8.52356 12.4972 8.52356L12.3097 8.5406Z" fill="#ABABAB"/>
<path d="M12.4972 6.25132C15.6328 6.25132 18.1777 8.79621 18.1777 11.9319C18.1777 12.6647 18.03 13.3634 17.7744 14.0052L21.0975 17.3283C22.813 15.8969 24.165 14.045 25 11.9319C23.0289 6.94438 18.1834 3.41107 12.4972 3.41107C10.9066 3.41107 9.3843 3.69508 7.96985 4.20633L10.4238 6.65462C11.0657 6.40469 11.7644 6.25132 12.4972 6.25132Z" fill="#ABABAB"/>
<path d="M1.13609 3.15557L3.72641 5.74589L4.24335 6.26283C2.36878 7.72841 0.886162 9.67685 0 11.932C1.96548 16.9195 6.81663 20.4528 12.4972 20.4528C14.2582 20.4528 15.9396 20.1119 17.479 19.4927L17.9619 19.9756L21.2736 23.293L22.7222 21.8502L2.58462 1.70703L1.13609 3.15557ZM7.41879 9.43257L9.17407 11.1878C9.12294 11.4321 9.08886 11.6764 9.08886 11.932C9.08886 13.8123 10.6169 15.3403 12.4972 15.3403C12.7528 15.3403 12.9971 15.3062 13.2357 15.2551L14.9909 17.0104C14.2354 17.3853 13.3947 17.6125 12.4972 17.6125C9.36153 17.6125 6.81663 15.0676 6.81663 11.932C6.81663 11.0345 7.04387 10.1937 7.41879 9.43257Z" fill="#ABABAB"/>
</svg>
